<svg xmlns="http://www.w3.org/2000/svg" xmlns:xlink="http://www.w3.org/1999/xlink" xmlns:fi="http://pattern.flaticon.com/" x="0" y="0" width="700" height="350" viewBox="0 0 700 350"><rect x="0px" y="0px" width="100%" height="100%" opacity="1" fill="#ffffff"/><defs><g transform="matrix(0.11724681407213211 0 0 0.11724681407213211 73.9999986546386 122)" id="L1_0"><path d="m240.708 285.414h30.326c4.142 0 7.5-3.358 7.5-7.5s-3.358-7.5-7.5-7.5h-30.326c-4.142 0-7.5 3.358-7.5 7.5s3.357 7.5 7.5 7.5z"/><g><path d="m221.618 94.044c-3.149-2.689-7.884-2.317-10.574.832l-77.888 91.192c-2.69 3.15-2.317 7.884.832 10.574 1.413 1.207 3.145 1.797 4.868 1.797 2.118 0 4.223-.893 5.707-2.629l77.888-91.192c2.689-3.15 2.316-7.884-.833-10.574z"/><path d="m133.875 148.519c1.429 1.27 3.208 1.895 4.98 1.895 2.068 0 4.127-.85 5.608-2.517l21.053-23.685c2.752-3.096 2.473-7.836-.623-10.588-3.097-2.752-7.837-2.473-10.588.623l-21.053 23.685c-2.751 3.095-2.472 7.835.623 10.587z"/><path d="m441.607 418.738c-2.042-6.44-7.952-10.767-14.708-10.767h-253.736c-4.142 0-7.5 3.358-7.5 7.5s3.358 7.5 7.5 7.5h253.737c.188 0 .353.121.409.299l23.109 72.913c.023.072.065.207-.063.383-.128.175-.27.175-.346.175h-388.277c-.076 0-.217 0-.346-.175-.128-.176-.086-.311-.063-.383l23.109-72.913c.057-.179.221-.299.409-.299h54.467c4.142 0 7.5-3.358 7.5-7.5s-3.358-7.5-7.5-7.5h-54.466c-6.756 0-12.667 4.327-14.708 10.767l-23.109 72.913c-1.503 4.741-.68 9.762 2.258 13.775s7.476 6.315 12.449 6.315h388.276c4.974 0 9.511-2.302 12.449-6.315s3.761-9.034 2.258-13.775z"/><path d="m453.843 0h-395.945c-16.538 0-29.993 13.455-29.993 29.993v254.015c0 16.538 13.455 29.993 29.993 29.993h147.267c-.515 15.068-1.995 40.069-5.224 54.087h-32.282c-4.142 0-7.5 3.358-7.5 7.5s3.358 7.5 7.5 7.5h176.425c4.142 0 7.5-3.358 7.5-7.5s-3.358-7.5-7.5-7.5h-32.282c-3.229-14.018-4.709-39.019-5.224-54.087h147.267c16.538 0 29.993-13.455 29.993-29.993v-254.015c-.002-16.538-13.457-29.993-29.995-29.993zm-238.588 368.088c3.309-16.954 4.506-41.798 4.914-54.087h71.402c.408 12.289 1.605 37.133 4.914 54.087zm253.581-84.08c0 8.267-6.726 14.993-14.993 14.993h-395.945c-8.267 0-14.993-6.726-14.993-14.993v-27.181h425.932v27.181zm0-42.181h-19.702v-110.706c0-4.142-3.358-7.5-7.5-7.5s-7.5 3.358-7.5 7.5v110.706h-356.527v-190.985c0-1.093.889-1.982 1.982-1.982h352.563c1.093 0 1.982.889 1.982 1.982v45.962c0 4.142 3.358 7.5 7.5 7.5s7.5-3.358 7.5-7.5v-45.962c0-9.364-7.618-16.982-16.982-16.982h-352.563c-9.364 0-16.982 7.618-16.982 16.982v190.985h-19.702v-211.834c0-8.267 6.726-14.993 14.993-14.993h395.945c8.267 0 14.993 6.726 14.993 14.993z"/><path d="m139.309 438.935h-10.177c-4.142 0-7.5 3.358-7.5 7.5s3.358 7.5 7.5 7.5h10.177c4.142 0 7.5-3.358 7.5-7.5s-3.358-7.5-7.5-7.5z"/><path d="m169.84 453.935h10.177c4.142 0 7.5-3.358 7.5-7.5s-3.358-7.5-7.5-7.5h-10.177c-4.142 0-7.5 3.358-7.5 7.5s3.358 7.5 7.5 7.5z"/><path d="m210.548 453.935h10.177c4.142 0 7.5-3.358 7.5-7.5s-3.358-7.5-7.5-7.5h-10.177c-4.142 0-7.5 3.358-7.5 7.5s3.358 7.5 7.5 7.5z"/><path d="m251.257 453.935h10.177c4.142 0 7.5-3.358 7.5-7.5s-3.358-7.5-7.5-7.5h-10.177c-4.142 0-7.5 3.358-7.5 7.5s3.358 7.5 7.5 7.5z"/><path d="m291.965 453.935h10.177c4.142 0 7.5-3.358 7.5-7.5s-3.358-7.5-7.5-7.5h-10.177c-4.142 0-7.5 3.358-7.5 7.5s3.358 7.5 7.5 7.5z"/><path d="m332.674 453.935h10.177c4.142 0 7.5-3.358 7.5-7.5s-3.358-7.5-7.5-7.5h-10.177c-4.142 0-7.5 3.358-7.5 7.5s3.358 7.5 7.5 7.5z"/><path d="m372.433 453.935h10.177c4.142 0 7.5-3.358 7.5-7.5s-3.358-7.5-7.5-7.5h-10.177c-4.142 0-7.5 3.358-7.5 7.5s3.358 7.5 7.5 7.5z"/><path d="m139.309 465.778h-10.177c-4.142 0-7.5 3.358-7.5 7.5s3.358 7.5 7.5 7.5h10.177c4.142 0 7.5-3.358 7.5-7.5s-3.358-7.5-7.5-7.5z"/><path d="m169.84 480.778h10.177c4.142 0 7.5-3.358 7.5-7.5s-3.358-7.5-7.5-7.5h-10.177c-4.142 0-7.5 3.358-7.5 7.5s3.358 7.5 7.5 7.5z"/><path d="m210.548 480.778h10.177c4.142 0 7.5-3.358 7.5-7.5s-3.358-7.5-7.5-7.5h-10.177c-4.142 0-7.5 3.358-7.5 7.5s3.358 7.5 7.5 7.5z"/><path d="m251.257 480.778h10.177c4.142 0 7.5-3.358 7.5-7.5s-3.358-7.5-7.5-7.5h-10.177c-4.142 0-7.5 3.358-7.5 7.5s3.358 7.5 7.5 7.5z"/><path d="m291.965 480.778h10.177c4.142 0 7.5-3.358 7.5-7.5s-3.358-7.5-7.5-7.5h-10.177c-4.142 0-7.5 3.358-7.5 7.5s3.358 7.5 7.5 7.5z"/><path d="m332.674 480.778h10.177c4.142 0 7.5-3.358 7.5-7.5s-3.358-7.5-7.5-7.5h-10.177c-4.142 0-7.5 3.358-7.5 7.5s3.358 7.5 7.5 7.5z"/><path d="m372.433 480.778h10.177c4.142 0 7.5-3.358 7.5-7.5s-3.358-7.5-7.5-7.5h-10.177c-4.142 0-7.5 3.358-7.5 7.5s3.358 7.5 7.5 7.5z"/></g></g><path d="M440,248H408a7.981,7.981,0,0,1-8-8v-4.484a84.269,84.269,0,0,0,37.693-52.028A32,32,0,0,0,440,121.013V88a56.065,56.065,0,0,0-51.315-55.789A36.7,36.7,0,0,0,358.111,16H328a72.081,72.081,0,0,0-72,72v24a8,8,0,0,0,8,8h8v1.009a32,32,0,0,0,2.274,62.468q.312,1.317.666,2.623l15.439-4.2A68.174,68.174,0,0,1,288,164V119.758a197.684,197.684,0,0,0,89.72-26.443,52.317,52.317,0,0,0,34.108,36.393L424,133.766V164a68.006,68.006,0,0,1-107.363,55.454l-9.274,13.038A84.192,84.192,0,0,0,320,239.905V240a8.009,8.009,0,0,1-8,8h-8V224a32.036,32.036,0,0,0-32-32H48a32.036,32.036,0,0,0-32,32v24H32V224a16.019,16.019,0,0,1,16-16H272a16.019,16.019,0,0,1,16,16V368a16.019,16.019,0,0,1-16,16H183.61l8.212-38.324A8,8,0,0,0,184,336H128a8,8,0,0,0-7.353,4.849L102.154,384H48a16.019,16.019,0,0,1-16-16V264H16V368a32.036,32.036,0,0,0,32,32H95.3L74.725,448H24a8,8,0,0,0-8,8v32a8,8,0,0,0,8,8H488a8,8,0,0,0,8-8V456a8,8,0,0,0-8-8H474.264A63.85,63.85,0,0,0,496,400v-8H480v8a48.055,48.055,0,0,1-48,48H304V432a24.028,24.028,0,0,1,24-24H432a8,8,0,0,0,8-8V344h40v32h16V304A56.064,56.064,0,0,0,440,248Zm0-84V138.165a15.978,15.978,0,0,1,3.32,25.142,16.2,16.2,0,0,1-3.367,2.561C439.966,165.245,440,164.626,440,164ZM264,152a15.923,15.923,0,0,1,4.68-11.307,16.159,16.159,0,0,1,3.32-2.532V164c0,.619.017,1.236.031,1.854A16,16,0,0,1,264,152ZM376,75.66A181.933,181.933,0,0,1,278.311,104H272V95.089c68.483-8.969,92.63-32.406,93.657-33.432L354.394,50.293c-.058.056-5.877,5.589-19.922,11.985C322.657,67.659,302.7,74.652,272.761,78.84a55.568,55.568,0,0,1,4.69-14.92c29.93-.845,45.445-8.424,46.127-8.765l-7.112-14.332c-.114.056-9.07,4.292-26.61,6.229A55.784,55.784,0,0,1,328,32h30.111A20.816,20.816,0,0,1,376,42.048Zm40.888,38.87A36.351,36.351,0,0,1,392,80V48.8A40.071,40.071,0,0,1,424,88v28.9ZM335.371,245.439a84.069,84.069,0,0,0,48.835-2.325,23.888,23.888,0,0,0,6.827,13.872,24.215,24.215,0,0,0,3.875,3.137l-2.28,3.039a42.031,42.031,0,0,1-68.885-2.243A24.079,24.079,0,0,0,335.371,245.439ZM288,432v16H248V432Zm-16.984-32H272a31.94,31.94,0,0,0,8-1.013V416H264.616Zm-64,0h46.768l-6.4,16H240a8,8,0,0,0-8,8v24H216V424a8,8,0,0,0-8-8h-7.384Zm-26.835,0h9.6l-6.4,16h-6.631ZM200,432v16H169.9l3.428-16Zm-66.725-80H174.1l-20.571,96h-61.4ZM480,464v16H32V464Zm0-136H440V304H424v88H328a39.964,39.964,0,0,0-32,16.028v-18.9A31.86,31.86,0,0,0,304,368V264h3.061a58.083,58.083,0,0,0,98.369,8.76L412,264h28a40.045,40.045,0,0,1,40,40Zm-88.617-23.2,6.975,14.4A88,88,0,0,1,316,316.21l8-13.856a72,72,0,0,0,67.384,2.446ZM336,144a16,16,0,1,1-16-16A16.019,16.019,0,0,1,336,144Zm32,0a16,16,0,1,1,16,16A16.019,16.019,0,0,1,368,144Zm3.637,26.2,8.726,13.411a52.043,52.043,0,0,1-56.726,0l8.726-13.411A36.026,36.026,0,0,0,371.637,170.2ZM128,248H96V232h32Zm48-16v16H144V232Zm48,0v16H192V232Zm48,16H240V232h32ZM80,232v16H48V232Z" transform="matrix(0.1171875 0 0 0.1171875 172 279)" id="L1_1"/><g transform="matrix(0.1171875 0 0 0.1171875 238.00000320434583 192)" id="L1_2"><path d="m482 104h-69c-5.523 0-10 4.477-10 10s4.477 10 10 10h69c5.514 0 10 4.486 10 10v143.556c-3.143-1.119-6.524-1.733-10.046-1.733s-6.902.615-10.045 1.733v-17.191c0-16.567-13.479-30.045-30.046-30.045-3.522 0-6.902.615-10.045 1.733v-6.007c0-3.522-.615-6.902-1.733-10.045h25.915c5.523 0 10-4.477 10-10v-44c0-5.523-4.477-10-10-10h-48c-5.523 0-10 4.477-10 10v34.245c-8.222 1.035-15.42 5.399-20.193 11.703.125-.63.193-1.281.193-1.948v-44c0-5.523-4.477-10-10-10h-48c-5.523 0-10 4.477-10 10v44c0 5.523 4.477 10 10 10h48c2.435 0 4.664-.872 6.399-2.318-1.711 3.774-2.672 7.957-2.672 12.363v6.007c-3.143-1.119-6.524-1.733-10.046-1.733-8.715 0-16.572 3.733-22.065 9.681h-59.616c-5.523 0-10 4.477-10 10v44c0 5.523 4.477 10 10 10h51.635v28h-151.27v-28h51.635c5.523 0 10-4.477 10-10v-44c0-5.523-4.477-10-10-10h-59.615c-5.493-5.947-13.35-9.681-22.066-9.681-3.522 0-6.902.615-10.045 1.733v-6.007c0-4.406-.961-8.589-2.672-12.363 1.734 1.446 3.964 2.318 6.399 2.318h48c5.523 0 10-4.477 10-10v-44c0-5.523-4.477-10-10-10h-48c-5.523 0-10 4.477-10 10v44c0 .667.068 1.317.193 1.948-4.772-6.304-11.971-10.667-20.193-11.703v-34.246c0-5.523-4.477-10-10-10h-48.001c-5.523 0-10 4.477-10 10v44c0 5.523 4.477 10 10 10h25.916c-1.119 3.143-1.733 6.523-1.733 10.045v6.007c-3.143-1.119-6.524-1.733-10.046-1.733-16.567 0-30.045 13.479-30.045 30.045v17.191c-3.143-1.119-6.524-1.733-10.046-1.733s-6.902.615-10.045 1.733v-143.555c0-5.514 4.486-10 10-10h293c5.523 0 10-4.477 10-10s-4.477-10-10-10h-57v-10c0-20.953-17.047-38-38-38h-42c-9.925 0-18-8.075-18-18s8.075-18 18-18h70c5.523 0 10-4.477 10-10s-4.477-10-10-10h-70c-20.953 0-38 17.047-38 38s17.047 38 38 38h42c9.925 0 18 8.075 18 18v10h-216.001c-16.542 0-30 13.458-30 30v294.796c0 22.063 8.568 42.83 24.125 58.475l21.659 21.78c1.955 1.965 4.522 2.949 7.091 2.949 2.55 0 5.101-.969 7.051-2.909 3.916-3.895 3.934-10.226.04-14.142l-21.659-21.78c-11.806-11.872-18.307-27.63-18.307-44.373v-122.928c0-5.539 4.506-10.045 10.046-10.045 5.539 0 10.045 4.506 10.045 10.045v61.714c0 5.523 4.477 10 10 10s10-4.477 10-10v-107.217c0-5.539 4.506-10.045 10.046-10.045 5.539 0 10.045 4.506 10.045 10.045v107.217c0 5.523 4.477 10 10 10s10-4.477 10-10v-141.537c0-5.539 4.506-10.045 10.046-10.045 5.539 0 10.045 4.506 10.045 10.045v141.537c0 5.523 4.477 10 10 10s10-4.477 10-10v-107.217c0-5.539 4.506-10.045 10.046-10.045 5.539 0 10.045 4.506 10.045 10.045v152.915c0 5.059 3.778 9.321 8.801 9.928 5.025.607 9.707-2.633 10.912-7.547l11.246-45.871c1.311-5.347 6.583-8.788 12.007-7.83 2.798.493 5.223 2.056 6.83 4.399 1.606 2.344 2.188 5.169 1.638 7.957l-12.021 60.963c-2.411 12.227-8.331 23.36-17.118 32.197l-27.32 27.473c-3.894 3.916-3.876 10.248.04 14.142 1.951 1.94 4.501 2.909 7.051 2.909 2.568 0 5.137-.984 7.091-2.949l27.32-27.473c11.581-11.646 19.381-26.318 22.559-42.431l12.021-60.963c1.598-8.104-.093-16.319-4.763-23.132-.739-1.078-1.543-2.091-2.396-3.052h63.477c-.853.961-1.657 1.975-2.396 3.052-4.669 6.813-6.361 15.029-4.763 23.132l12.021 60.963c3.177 16.113 10.978 30.785 22.559 42.431l27.32 27.473c1.955 1.965 4.522 2.949 7.091 2.949 2.55 0 5.101-.969 7.051-2.909 3.916-3.895 3.934-10.226.04-14.142l-27.32-27.473c-8.788-8.837-14.707-19.971-17.118-32.197l-12.021-60.963c-.55-2.788.032-5.613 1.638-7.957s4.032-3.906 6.83-4.399c5.418-.955 10.695 2.483 12.006 7.83l11.246 45.871c1.205 4.913 5.886 8.159 10.912 7.547 5.022-.606 8.801-4.869 8.801-9.928v-152.915c0-5.539 4.506-10.045 10.046-10.045 5.539 0 10.045 4.506 10.045 10.045v107.217c0 5.523 4.477 10 10 10s10-4.477 10-10v-141.537c0-5.539 4.507-10.045 10.046-10.045s10.045 4.506 10.045 10.045v141.537c0 5.523 4.477 10 10 10s10-4.477 10-10v-107.217c0-5.539 4.506-10.045 10.046-10.045 5.539 0 10.045 4.506 10.045 10.045v107.217c0 5.523 4.477 10 10 10s10-4.477 10-10v-61.714c0-5.539 4.506-10.045 10.046-10.045 5.539 0 10.045 4.506 10.045 10.045v122.928c0 16.742-6.501 32.5-18.307 44.372l-21.659 21.78c-3.894 3.916-3.876 10.248.04 14.142 1.951 1.94 4.501 2.909 7.051 2.909 2.568 0 5.137-.984 7.091-2.949l21.659-21.78c15.557-15.644 24.125-36.411 24.125-58.474v-294.796c0-16.542-13.458-30-30-30zm-124 92h-28v-24h28zm-204-24h28v24h-28zm-88 0h28v24h-28zm224 112v-24h41.635v.365 23.635zm-109.635-24h41.635v24h-41.635v-23.635zm237.635-88h28v24h-28z" id="XMLID_73_"/><path d="m232 152c-5.523 0-10 4.477-10 10v44c0 5.523 4.477 10 10 10h48c5.523 0 10-4.477 10-10v-44c0-5.523-4.477-10-10-10zm38 44h-28v-24h28z" id="XMLID_1133_"/><path d="m368 124c2.63 0 5.21-1.07 7.07-2.93s2.93-4.44 2.93-7.07-1.07-5.21-2.93-7.07-4.44-2.93-7.07-2.93-5.21 1.07-7.07 2.93-2.93 4.44-2.93 7.07 1.07 5.21 2.93 7.07 4.44 2.93 7.07 2.93z" id="XMLID_1664_"/></g><g transform="matrix(0.1171875 0 0 0.1171875 -2.9999999427795387 282.99999925613406)" id="L1_3"><path d="m500.099 115.853c-.946-1.751-2.548-3.055-4.456-3.624l-24.951-7.442 4.484-14.996c1.27-4.187.821-8.624-1.264-12.494-.82-1.522-1.858-2.874-3.063-4.039l8.314-27.79c4.366-14.685-4.014-30.183-18.668-34.542-7.103-2.126-14.624-1.35-21.174 2.188-6.54 3.534-11.303 9.385-13.408 16.464l-8.315 27.791c-5.417 1.017-10.136 4.722-12.237 10.079l-64.33-61.272-1.126-1.077c-1.346-1.294-2.611-2.494-4.073-3.41-.065-.045-.131-.089-.198-.132-.027-.016-.053-.033-.079-.048-.577-.366-1.205-.657-1.875-.855-1.127-.403-2.385-.654-3.89-.654h-304.588c-7.831 0-14.202 6.368-14.202 14.195v214.613c0 4.143 3.358 7.5 7.5 7.5s7.5-3.357 7.5-7.5v-213.808h298.043l-.049 43.31c0 19.012 15.466 34.479 34.477 34.479h39.242l-30.837 103.119c-1.187 3.968 1.068 8.147 5.037 9.334 3.97 1.191 8.147-1.068 9.334-5.037l33.634-112.47c.063-.184.118-.37.168-.56l4.226-14.132c.207-.697 1.027-1.118 1.74-.908l38.888 11.607c.436.129.678.435.803.668.125.232.246.599.107 1.057l-6.629 22.169c-.005.017-.013.033-.018.05s-.007.034-.012.05l-81.782 273.504-13.571-4.048-27.969-8.344 40.502-135.422c1.187-3.969-1.068-8.148-5.037-9.335-3.967-1.188-8.147 1.068-9.334 5.036l-42.653 142.612c-.013.044-.02.089-.033.134-.025.089-.044.179-.066.269-.045.189-.084.379-.114.569-.015.095-.029.189-.041.285-.025.208-.04.416-.047.625-.003.075-.009.148-.01.223-.002.285.011.569.042.853.001.009 0 .018.001.027l4.147 37.002 2.966 26.194c-2.842-1.863-4.977-5.107-7.54-9.289-3.148-5.136-7.461-12.168-15.719-10.617-6.937 1.338-10.199 7.135-13.354 12.74-1.637 2.908-3.33 5.916-5.689 8.91-1.744 2.218-2.921 2.848-3.299 2.87-.302.025-2.046-.142-6.962-5.033-12.863-12.763-22.868-4.056-27.676.126-1.795 1.563-3.83 3.332-5.167 3.573-1.265.214-3.569-1.074-6.189-3.478-3.054-2.8-7.797-2.595-10.597.46-2.799 3.053-2.594 7.797.459 10.597 15.351 14.077 26.15 4.681 31.34.164 1.268-1.103 3.39-2.949 4.117-3.085.01.001 1.027.186 3.141 2.283 4.698 4.676 10.422 9.395 17.48 9.395.319 0 .641-.01.965-.029 5.185-.314 9.956-3.198 14.176-8.563 3.075-3.902 5.238-7.745 6.976-10.833.623-1.105 1.366-2.428 2.048-3.515.401.631.807 1.293 1.165 1.876 4.212 6.867 11.992 19.535 29.287 18.09.03 0 .062.007.092.007 1.114 0 2.104-.258 2.973-.645.128-.054.25-.116.374-.177.025-.013.051-.025.076-.038.365-.185.712-.396 1.037-.635 1.063-.745 1.857-1.604 2.373-2.164.086-.093.169-.188.25-.286l45.889-55.262c.068-.082.123-.173.188-.257.082-.108.162-.215.239-.327.158-.233.3-.473.43-.72.039-.075.085-.144.122-.22.162-.334.293-.679.403-1.031.01-.031.025-.057.034-.088l21.095-70.549v174.83h-379.692v-233.524c0-4.143-3.358-7.5-7.5-7.5s-7.5 3.357-7.5 7.5v234.301c0 7.842 6.371 14.223 14.202 14.223h381.261c7.847 0 14.23-6.381 14.23-14.224v-225.773l45.703-152.845 17.769 5.3-30.478 101.918c-1.187 3.968 1.068 8.147 5.037 9.334.717.214 1.44.316 2.152.316 3.229 0 6.21-2.102 7.183-5.354l32.628-109.108c.569-1.906.358-3.96-.588-5.711zm-59.811-81.988c.965-3.245 3.154-5.928 6.165-7.554 3.02-1.633 6.479-1.992 9.753-1.013 6.741 2.006 10.59 9.136 8.584 15.882l-7.79 26.04-24.502-7.313zm-101.294 24.453.037-33.338 55.439 52.808h-36c-10.739 0-19.476-8.738-19.476-19.47zm-3.689 371.218-5.091-45.22 34.174 10.195z"/><path d="m105.932 202.453c0 4.143 3.358 7.5 7.5 7.5h203.637c4.142 0 7.5-3.357 7.5-7.5s-3.358-7.5-7.5-7.5h-203.637c-4.142 0-7.5 3.358-7.5 7.5z"/><path d="m113.432 268.252h191.227c4.142 0 7.5-3.357 7.5-7.5s-3.358-7.5-7.5-7.5h-191.227c-4.142 0-7.5 3.357-7.5 7.5s3.358 7.5 7.5 7.5z"/><path d="m113.432 326.551h176.432c4.142 0 7.5-3.357 7.5-7.5s-3.358-7.5-7.5-7.5h-176.432c-4.142 0-7.5 3.357-7.5 7.5s3.358 7.5 7.5 7.5z"/><path d="m113.432 384.85h120.83c4.142 0 7.5-3.357 7.5-7.5s-3.358-7.5-7.5-7.5h-120.83c-4.142 0-7.5 3.357-7.5 7.5s3.358 7.5 7.5 7.5z"/><path d="m293.214 152.307c6.954 0 12.612-5.655 12.612-12.606v-30.241c0-6.951-5.658-12.606-12.612-12.606h-165.044c-6.954 0-12.611 5.655-12.611 12.606v30.24c0 6.951 5.657 12.606 12.611 12.606h165.044zm-162.655-40.454h160.268v25.454h-160.268z"/></g><g transform="matrix(0.1171875 0 0 0.1171875 258 60)" id="L1_4"><path d="m67.179688 48.394531h-.101563c-5.523437 0-10 4.476563-10 10 0 5.523438 4.476563 10 10 10h.101563c5.523437 0 10-4.476562 10-10 0-5.523437-4.476563-10-10-10zm0 0"/><path d="m116.710938 48.394531h-.101563c-5.523437 0-10 4.476563-10 10 0 5.523438 4.476563 10 10 10h.101563c5.523437 0 10-4.476562 10-10 0-5.523437-4.476563-10-10-10zm0 0"/><path d="m166.242188 48.394531h-.101563c-5.523437 0-10 4.476563-10 10 0 5.523438 4.476563 10 10 10h.101563c5.523437 0 10-4.476562 10-10 0-5.523437-4.476563-10-10-10zm0 0"/><path d="m444.308594 48.394531h-192.929688c-5.523437 0-10 4.476563-10 10 0 5.519531 4.476563 10 10 10h192.929688c5.523437 0 10-4.480469 10-10 0-5.523437-4.476563-10-10-10zm0 0"/><path d="m262.890625 452.4375c-2.628906 0-5.199219 1.070312-7.070313 2.929688-1.859374 1.859374-2.929687 4.441406-2.929687 7.070312s1.070313 5.210938 2.929687 7.070312c1.871094 1.859376 4.441407 2.929688 7.070313 2.929688s5.210937-1.070312 7.070313-2.929688c1.867187-1.859374 2.929687-4.441406 2.929687-7.070312s-1.0625-5.210938-2.929687-7.070312c-1.859376-1.859376-4.441407-2.929688-7.070313-2.929688zm0 0"/><path d="m480.230469.5h-448.460938c-17.515625 0-31.769531 14.253906-31.769531 31.769531v408.398438c0 17.519531 14.253906 31.769531 31.769531 31.769531h189.230469c5.523438 0 10-4.476562 10-10s-4.476562-10-10-10h-189.230469c-6.488281 0-11.769531-5.277344-11.769531-11.769531v-324.378907h472v324.378907c0 6.488281-5.28125 11.769531-11.769531 11.769531h-176.5625c-5.523438 0-10 4.476562-10 10s4.476562 10 10 10h176.5625c17.515625 0 31.769531-14.25 31.769531-31.769531v-408.398438c0-17.515625-14.253906-31.769531-31.769531-31.769531zm-460.230469 95.785156v-64.015625c0-6.488281 5.28125-11.769531 11.769531-11.769531h448.460938c6.488281 0 11.769531 5.28125 11.769531 11.769531v64.019531h-472zm0 0"/><path d="m178.039062 230.5c0-19.851562-16.148437-36-36-36h-33.667968c-5.523438 0-10 4.476562-10 10v104c0 5.523438 4.476562 10 10 10h33.667968c19.851563 0 36-16.148438 36-36 0-10.214844-4.28125-19.441406-11.140624-26 6.859374-6.558594 11.140624-15.785156 11.140624-26zm-20 52c0 8.820312-7.179687 16-16 16h-23.667968v-32h23.667968c8.820313 0 16 7.175781 16 16zm-39.667968-36v-32h23.667968c8.824219 0 16 7.179688 16 16s-7.175781 16-16 16zm0 0"/><path d="m206.648438 194.5c-5.523438 0-10 4.476562-10 10v80.871094c0 18.269531 14.863281 33.128906 33.128906 33.128906 5.523437 0 10-4.476562 10-10s-4.476563-10-10-10c-7.238282 0-13.128906-5.890625-13.128906-13.128906v-80.871094c0-5.523438-4.476563-10-10-10zm0 0"/><path d="m324.867188 282.289062c0-19.96875-16.242188-36.214843-36.210938-36.214843s-36.210938 16.246093-36.210938 36.214843 16.246094 36.210938 36.210938 36.210938c19.96875 0 36.210938-16.242188 36.210938-36.210938zm-52.421876 0c0-8.941406 7.273438-16.214843 16.210938-16.214843s16.210938 7.273437 16.210938 16.214843c0 8.9375-7.269532 16.210938-16.210938 16.210938s-16.210938-7.273438-16.210938-16.210938zm0 0"/><path d="m377.414062 346.5c-8.9375 0-16.210937-7.273438-16.210937-16.210938 0-5.523437-4.476563-10-10-10s-10 4.476563-10 10c0 19.96875 16.246094 36.210938 36.210937 36.210938 19.96875 0 36.214844-16.242188 36.214844-36.210938v-48c0-19.96875-16.246094-36.214843-36.214844-36.214843-19.964843 0-36.210937 16.246093-36.210937 36.214843s16.246094 36.210938 36.210937 36.210938c5.828126 0 11.332032-1.390625 16.214844-3.847656v15.636718c0 8.9375-7.273437 16.210938-16.214844 16.210938zm0-48c-8.9375 0-16.210937-7.273438-16.210937-16.210938 0-8.941406 7.273437-16.214843 16.210937-16.214843 8.941407 0 16.214844 7.273437 16.214844 16.214843 0 8.9375-7.273437 16.210938-16.214844 16.210938zm0 0"/><path d="m108.371094 416.5h295.257812c5.523438 0 10-4.476562 10-10s-4.476562-10-10-10h-295.257812c-5.519532 0-10 4.476562-10 10s4.480468 10 10 10zm0 0"/></g></defs><g fi:class="KUsePattern"><pattern id="pattern_L1_0" width="350" height="350" patternUnits="userSpaceOnUse"><use xlink:href="#L1_0" x="-350" y="-350"/><use xlink:href="#L1_0" x="0" y="-350"/><use xlink:href="#L1_0" x="350" y="-350"/><use xlink:href="#L1_0" x="-350" y="0"/><use xlink:href="#L1_0" x="0" y="0"/><use xlink:href="#L1_0" x="350" y="0"/><use xlink:href="#L1_0" x="-350" y="350"/><use xlink:href="#L1_0" x="0" y="350"/><use xlink:href="#L1_0" x="350" y="350"/></pattern><rect x="0" y="0" width="100%" height="100%" fill="url(#pattern_L1_0)"/></g><g fi:class="KUsePattern"><pattern id="pattern_L1_1" width="350" height="350" patternUnits="userSpaceOnUse"><use xlink:href="#L1_1" x="-350" y="-350"/><use xlink:href="#L1_1" x="0" y="-350"/><use xlink:href="#L1_1" x="350" y="-350"/><use xlink:href="#L1_1" x="-350" y="0"/><use xlink:href="#L1_1" x="0" y="0"/><use xlink:href="#L1_1" x="350" y="0"/><use xlink:href="#L1_1" x="-350" y="350"/><use xlink:href="#L1_1" x="0" y="350"/><use xlink:href="#L1_1" x="350" y="350"/></pattern><rect x="0" y="0" width="100%" height="100%" fill="url(#pattern_L1_1)"/></g><g fi:class="KUsePattern"><pattern id="pattern_L1_2" width="350" height="350" patternUnits="userSpaceOnUse"><use xlink:href="#L1_2" x="-350" y="-350"/><use xlink:href="#L1_2" x="0" y="-350"/><use xlink:href="#L1_2" x="350" y="-350"/><use xlink:href="#L1_2" x="-350" y="0"/><use xlink:href="#L1_2" x="0" y="0"/><use xlink:href="#L1_2" x="350" y="0"/><use xlink:href="#L1_2" x="-350" y="350"/><use xlink:href="#L1_2" x="0" y="350"/><use xlink:href="#L1_2" x="350" y="350"/></pattern><rect x="0" y="0" width="100%" height="100%" fill="url(#pattern_L1_2)"/></g><g fi:class="KUsePattern"><pattern id="pattern_L1_3" width="350" height="350" patternUnits="userSpaceOnUse"><use xlink:href="#L1_3" x="-350" y="-350"/><use xlink:href="#L1_3" x="0" y="-350"/><use xlink:href="#L1_3" x="350" y="-350"/><use xlink:href="#L1_3" x="-350" y="0"/><use xlink:href="#L1_3" x="0" y="0"/><use xlink:href="#L1_3" x="350" y="0"/><use xlink:href="#L1_3" x="-350" y="350"/><use xlink:href="#L1_3" x="0" y="350"/><use xlink:href="#L1_3" x="350" y="350"/></pattern><rect x="0" y="0" width="100%" height="100%" fill="url(#pattern_L1_3)"/></g><g fi:class="KUsePattern"><pattern id="pattern_L1_4" width="350" height="350" patternUnits="userSpaceOnUse"><use xlink:href="#L1_4" x="-350" y="-350"/><use xlink:href="#L1_4" x="0" y="-350"/><use xlink:href="#L1_4" x="350" y="-350"/><use xlink:href="#L1_4" x="-350" y="0"/><use xlink:href="#L1_4" x="0" y="0"/><use xlink:href="#L1_4" x="350" y="0"/><use xlink:href="#L1_4" x="-350" y="350"/><use xlink:href="#L1_4" x="0" y="350"/><use xlink:href="#L1_4" x="350" y="350"/></pattern><rect x="0" y="0" width="100%" height="100%" fill="url(#pattern_L1_4)"/></g></svg>